<svg xmlns="http://www.w3.org/2000/svg" xmlns:xlink="http://www.w3.org/1999/xlink" width="1920" zoomAndPan="magnify" viewBox="0 0 1440 809.999993" height="1080" preserveAspectRatio="xMidYMid meet" version="1.0"><defs><filter x="0%" y="0%" width="100%" height="100%" id="1b0cc823bb"><feColorMatrix values="0 0 0 0 1 0 0 0 0 1 0 0 0 0 1 0 0 0 1 0" color-interpolation-filters="sRGB"/></filter><clipPath id="82017eb562"><path d="M 0 515.296875 L 682.933594 515.296875 L 682.933594 810 L 0 810 Z M 0 515.296875 " clip-rule="nonzero"/></clipPath><clipPath id="a856333b2b"><path d="M 0 515.296875 L 341 515.296875 L 341 810 L 0 810 Z M 0 515.296875 " clip-rule="nonzero"/></clipPath><mask id="4a38537fc2"><g filter="url(#1b0cc823bb)"><rect x="-144" width="1728" fill="#000000" y="-80.999999" height="971.999992" fill-opacity="0.1"/></g></mask><clipPath id="ef1d3c8800"><path d="M 0 0.296875 L 340 0.296875 L 340 295 L 0 295 Z M 0 0.296875 " clip-rule="nonzero"/></clipPath><clipPath id="471f82df5c"><rect x="0" width="341" y="0" height="295"/></clipPath><clipPath id="3e5579916f"><path d="M 889.925781 0 L 1429.925781 0 L 1429.925781 540 L 889.925781 540 Z M 889.925781 0 " clip-rule="nonzero"/></clipPath><mask id="e32555aabf"><g filter="url(#1b0cc823bb)"><rect x="-144" width="1728" fill="#000000" y="-80.999999" height="971.999992" fill-opacity="0.2"/></g></mask><clipPath id="99a115565a"><path d="M 0.121094 1 L 194.761719 1 L 194.761719 80.320312 L 0.121094 80.320312 Z M 0.121094 1 " clip-rule="nonzero"/></clipPath><clipPath id="68480ac9cd"><rect x="0" width="195" y="0" height="81"/></clipPath><mask id="263b504af0"><g filter="url(#1b0cc823bb)"><rect x="-144" width="1728" fill="#000000" y="-80.999999" height="971.999992" fill-opacity="0.2"/></g></mask><clipPath id="1f00203498"><path d="M 1 1 L 159.238281 1 L 159.238281 65 L 1 65 Z M 1 1 " clip-rule="nonzero"/></clipPath><clipPath id="c0dc05bef0"><rect x="0" width="160" y="0" height="66"/></clipPath><mask id="5ee4877f5f"><g filter="url(#1b0cc823bb)"><rect x="-144" width="1728" fill="#000000" y="-80.999999" height="971.999992" fill-opacity="0.1"/></g></mask><clipPath id="4989ac7946"><path d="M 1 1 L 149.839844 1 L 149.839844 108.519531 L 1 108.519531 Z M 1 1 " clip-rule="nonzero"/></clipPath><clipPath id="8961b4697f"><rect x="0" width="150" y="0" height="109"/></clipPath><mask id="91083f5439"><g filter="url(#1b0cc823bb)"><rect x="-144" width="1728" fill="#000000" y="-80.999999" height="971.999992" fill-opacity="0.1"/></g></mask><clipPath id="1ad5185e56"><path d="M 0.398438 0.28125 L 31 0.28125 L 31 31 L 0.398438 31 Z M 0.398438 0.28125 " clip-rule="nonzero"/></clipPath><clipPath id="23eb3e2014"><rect x="0" width="32" y="0" height="31"/></clipPath><mask id="25a983d5d6"><g filter="url(#1b0cc823bb)"><rect x="-144" width="1728" fill="#000000" y="-80.999999" height="971.999992" fill-opacity="0.1"/></g></mask><clipPath id="86305a3ee6"><path d="M 1 2 L 13.640625 2 L 13.640625 14 L 1 14 Z M 1 2 " clip-rule="nonzero"/></clipPath><clipPath id="5d7bb05bca"><rect x="0" width="14" y="0" height="16"/></clipPath><mask id="884b9394be"><g filter="url(#1b0cc823bb)"><rect x="-144" width="1728" fill="#000000" y="-80.999999" height="971.999992" fill-opacity="0.1"/></g></mask><clipPath id="3a71f75ffa"><path d="M 0.921875 1 L 13 1 L 13 13.519531 L 0.921875 13.519531 Z M 0.921875 1 " clip-rule="nonzero"/></clipPath><clipPath id="954750e1a2"><rect x="0" width="14" y="0" height="14"/></clipPath><mask id="dfa7303408"><g filter="url(#1b0cc823bb)"><rect x="-144" width="1728" fill="#000000" y="-80.999999" height="971.999992" fill-opacity="0.4"/></g></mask><clipPath id="c7bbcabcf5"><rect x="0" width="18" y="0" height="16"/></clipPath><mask id="e3ecbface9"><g filter="url(#1b0cc823bb)"><rect x="-144" width="1728" fill="#000000" y="-80.999999" height="971.999992" fill-opacity="0.4"/></g></mask><clipPath id="3277e94b0c"><rect x="0" width="18" y="0" height="17"/></clipPath><mask id="f834b1f0d6"><g filter="url(#1b0cc823bb)"><rect x="-144" width="1728" fill="#000000" y="-80.999999" height="971.999992" fill-opacity="0.4"/></g></mask><clipPath id="aa9456268b"><rect x="0" width="21" y="0" height="20"/></clipPath><mask id="a0e352a5e3"><g filter="url(#1b0cc823bb)"><rect x="-144" width="1728" fill="#000000" y="-80.999999" height="971.999992" fill-opacity="0.4"/></g></mask><clipPath id="8033eae660"><rect x="0" width="36" y="0" height="37"/></clipPath><mask id="de8bee7ab8"><g filter="url(#1b0cc823bb)"><rect x="-144" width="1728" fill="#000000" y="-80.999999" height="971.999992" fill-opacity="0.4"/></g></mask><clipPath id="cec880dd74"><rect x="0" width="27" y="0" height="26"/></clipPath><mask id="cb6a3fa1ef"><g filter="url(#1b0cc823bb)"><rect x="-144" width="1728" fill="#000000" y="-80.999999" height="971.999992" fill-opacity="0.4"/></g></mask><clipPath id="6b7987f256"><path d="M 0.71875 0.28125 L 24 0.28125 L 24 24 L 0.71875 24 Z M 0.71875 0.28125 " clip-rule="nonzero"/></clipPath><clipPath id="861e35cf7c"><rect x="0" width="25" y="0" height="26"/></clipPath><clipPath id="3dae0f0ade"><path d="M 321.476562 570.789062 L 1150.226562 570.789062 L 1150.226562 810 L 321.476562 810 Z M 321.476562 570.789062 " clip-rule="nonzero"/></clipPath><clipPath id="14b3659b66"><path d="M 321.476562 570.789062 L 792 570.789062 L 792 810 L 321.476562 810 Z M 321.476562 570.789062 " clip-rule="nonzero"/></clipPath><mask id="bb298c58e9"><g filter="url(#1b0cc823bb)"><rect x="-144" width="1728" fill="#000000" y="-80.999999" height="971.999992" fill-opacity="0.1"/></g></mask><clipPath id="793d52bde2"><path d="M 0.476562 0.789062 L 469 0.789062 L 469 240 L 0.476562 240 Z M 0.476562 0.789062 " clip-rule="nonzero"/></clipPath><clipPath id="fe89c99a4c"><rect x="0" width="471" y="0" height="240"/></clipPath><clipPath id="3599719784"><path d="M 906.132812 553.828125 L 1440 553.828125 L 1440 810 L 906.132812 810 Z M 906.132812 553.828125 " clip-rule="nonzero"/></clipPath><clipPath id="6b46fba865"><path d="M 906.132812 553.828125 L 1313 553.828125 L 1313 810 L 906.132812 810 Z M 906.132812 553.828125 " clip-rule="nonzero"/></clipPath><mask id="7dcea6a987"><g filter="url(#1b0cc823bb)"><rect x="-144" width="1728" fill="#000000" y="-80.999999" height="971.999992" fill-opacity="0.1"/></g></mask><clipPath id="0613c67d88"><path d="M 0.132812 0.828125 L 406 0.828125 L 406 257 L 0.132812 257 Z M 0.132812 0.828125 " clip-rule="nonzero"/></clipPath><clipPath id="9aed501814"><rect x="0" width="407" y="0" height="257"/></clipPath></defs><g clip-path="url(#82017eb562)"><path fill="#fbf1ef" d="M 682.9375 831.890625 C 682.9375 832.945312 682.9375 834.261719 682.9375 835.316406 L -107.558594 835.316406 C -107.558594 834.261719 -107.558594 832.945312 -107.558594 831.890625 C -107.558594 767.335938 -55.121094 714.636719 9.699219 714.636719 C 23.402344 714.636719 36.574219 717.007812 48.960938 721.484375 C 44.480469 706.730469 42.109375 691.183594 42.109375 675.109375 C 42.109375 586.839844 114.042969 515.167969 202.582031 515.167969 C 260.8125 515.167969 311.667969 546.257812 339.863281 592.636719 C 348.820312 590.527344 358.308594 589.472656 367.792969 589.472656 C 389.664062 589.472656 410.480469 595.007812 428.398438 605.019531 C 467.132812 626.363281 493.21875 667.46875 493.21875 714.636719 C 493.21875 724.121094 492.164062 733.605469 490.058594 742.566406 C 510.609375 725.175781 536.960938 714.636719 565.945312 714.636719 C 630.5 714.898438 682.9375 767.335938 682.9375 831.890625 Z M 682.9375 831.890625 " fill-opacity="1" fill-rule="nonzero"/></g><g clip-path="url(#a856333b2b)"><g mask="url(#4a38537fc2)"><g transform="matrix(1, 0, 0, 1, 0, 515)"><g clip-path="url(#471f82df5c)"><g clip-path="url(#ef1d3c8800)"><path fill="#b175ff" d="M 339.335938 77.371094 C 291.378906 88.964844 254.226562 128.753906 246.585938 178.292969 C 232.09375 172.496094 216.28125 169.070312 199.683594 169.070312 C 130.910156 169.070312 75.046875 224.667969 75.046875 293.703125 C 75.046875 302.925781 76.101562 311.886719 77.945312 320.582031 L -107.558594 320.582031 C -107.558594 319.527344 -107.558594 318.210938 -107.558594 317.15625 C -107.558594 252.597656 -55.121094 199.898438 9.699219 199.898438 C 23.402344 199.898438 36.574219 202.269531 48.960938 206.75 C 44.480469 191.992188 42.109375 176.449219 42.109375 160.375 C 42.109375 71.839844 114.042969 0.167969 202.582031 0.167969 C 260.550781 0.167969 311.40625 30.996094 339.335938 77.371094 Z M 339.335938 77.371094 " fill-opacity="1" fill-rule="nonzero"/></g></g></g></g></g><g clip-path="url(#3e5579916f)"><path fill="#2d1674" d="M 1429.925781 270 C 1429.925781 274.417969 1429.820312 278.835938 1429.601562 283.25 C 1429.386719 287.660156 1429.058594 292.066406 1428.628906 296.464844 C 1428.195312 300.863281 1427.652344 305.246094 1427.003906 309.617188 C 1426.355469 313.988281 1425.601562 318.339844 1424.738281 322.675781 C 1423.878906 327.007812 1422.910156 331.316406 1421.835938 335.605469 C 1420.761719 339.890625 1419.582031 344.148438 1418.300781 348.375 C 1417.019531 352.605469 1415.632812 356.800781 1414.144531 360.960938 C 1412.65625 365.121094 1411.066406 369.242188 1409.375 373.324219 C 1407.683594 377.40625 1405.894531 381.445312 1404.003906 385.441406 C 1402.113281 389.433594 1400.128906 393.378906 1398.046875 397.277344 C 1395.960938 401.175781 1393.785156 405.015625 1391.515625 408.808594 C 1389.242188 412.597656 1386.878906 416.328125 1384.425781 420.003906 C 1381.96875 423.679688 1379.425781 427.289062 1376.792969 430.839844 C 1374.160156 434.386719 1371.441406 437.871094 1368.640625 441.285156 C 1365.835938 444.703125 1362.953125 448.046875 1359.984375 451.320312 C 1357.015625 454.59375 1353.96875 457.792969 1350.847656 460.917969 C 1347.722656 464.042969 1344.523438 467.089844 1341.246094 470.058594 C 1337.972656 473.023438 1334.628906 475.910156 1331.214844 478.710938 C 1327.796875 481.515625 1324.316406 484.234375 1320.765625 486.867188 C 1317.214844 489.5 1313.605469 492.042969 1309.929688 494.496094 C 1306.257812 496.953125 1302.523438 499.316406 1298.734375 501.585938 C 1294.945312 503.859375 1291.101562 506.035156 1287.203125 508.117188 C 1283.308594 510.203125 1279.363281 512.1875 1275.367188 514.078125 C 1271.371094 515.964844 1267.335938 517.757812 1263.25 519.449219 C 1259.167969 521.136719 1255.046875 522.726562 1250.886719 524.21875 C 1246.726562 525.707031 1242.53125 527.089844 1238.304688 528.375 C 1234.074219 529.65625 1229.816406 530.835938 1225.53125 531.910156 C 1221.246094 532.980469 1216.933594 533.949219 1212.601562 534.8125 C 1208.269531 535.675781 1203.914062 536.429688 1199.542969 537.078125 C 1195.171875 537.726562 1190.789062 538.265625 1186.390625 538.699219 C 1181.996094 539.132812 1177.589844 539.457031 1173.175781 539.675781 C 1168.761719 539.890625 1164.347656 540 1159.925781 540 C 1155.507812 540 1151.09375 539.890625 1146.679688 539.675781 C 1142.265625 539.457031 1137.859375 539.132812 1133.460938 538.699219 C 1129.066406 538.265625 1124.679688 537.726562 1120.308594 537.078125 C 1115.9375 536.429688 1111.585938 535.675781 1107.253906 534.8125 C 1102.917969 533.949219 1098.609375 532.980469 1094.324219 531.910156 C 1090.035156 530.835938 1085.777344 529.65625 1081.550781 528.375 C 1077.320312 527.089844 1073.128906 525.707031 1068.96875 524.21875 C 1064.804688 522.726562 1060.683594 521.136719 1056.601562 519.449219 C 1052.519531 517.757812 1048.480469 515.964844 1044.488281 514.078125 C 1040.492188 512.1875 1036.546875 510.203125 1032.648438 508.117188 C 1028.753906 506.035156 1024.910156 503.859375 1021.121094 501.585938 C 1017.328125 499.316406 1013.597656 496.953125 1009.921875 494.496094 C 1006.25 492.042969 1002.636719 489.5 999.089844 486.867188 C 995.539062 484.234375 992.058594 481.515625 988.640625 478.710938 C 985.226562 475.910156 981.878906 473.023438 978.605469 470.058594 C 975.332031 467.089844 972.132812 464.042969 969.007812 460.917969 C 965.882812 457.792969 962.835938 454.59375 959.871094 451.320312 C 956.902344 448.046875 954.015625 444.703125 951.214844 441.285156 C 948.410156 437.871094 945.695312 434.386719 943.0625 430.839844 C 940.429688 427.289062 937.886719 423.679688 935.429688 420.003906 C 932.976562 416.328125 930.613281 412.597656 928.339844 408.808594 C 926.070312 405.015625 923.890625 401.175781 921.808594 397.277344 C 919.726562 393.378906 917.738281 389.433594 915.851562 385.441406 C 913.960938 381.445312 912.171875 377.40625 910.480469 373.324219 C 908.789062 369.242188 907.199219 365.121094 905.710938 360.960938 C 904.222656 356.800781 902.835938 352.605469 901.554688 348.375 C 900.269531 344.148438 899.09375 339.890625 898.019531 335.605469 C 896.945312 331.316406 895.976562 327.007812 895.113281 322.675781 C 894.253906 318.339844 893.496094 313.988281 892.847656 309.617188 C 892.199219 305.246094 891.660156 300.863281 891.226562 296.464844 C 890.792969 292.066406 890.46875 287.660156 890.253906 283.25 C 890.035156 278.835938 889.925781 274.417969 889.925781 270 C 889.925781 265.582031 890.035156 261.164062 890.253906 256.75 C 890.46875 252.339844 890.792969 247.933594 891.226562 243.535156 C 891.660156 239.136719 892.199219 234.753906 892.847656 230.382812 C 893.496094 226.011719 894.253906 221.660156 895.113281 217.324219 C 895.976562 212.992188 896.945312 208.683594 898.019531 204.394531 C 899.09375 200.109375 900.269531 195.851562 901.554688 191.625 C 902.835938 187.394531 904.222656 183.199219 905.710938 179.039062 C 907.199219 174.878906 908.789062 170.757812 910.480469 166.675781 C 912.171875 162.59375 913.960938 158.554688 915.851562 154.558594 C 917.738281 150.566406 919.726562 146.621094 921.808594 142.722656 C 923.890625 138.824219 926.070312 134.980469 928.339844 131.191406 C 930.613281 127.402344 932.976562 123.671875 935.429688 119.996094 C 937.886719 116.320312 940.429688 112.710938 943.0625 109.160156 C 945.695312 105.613281 948.410156 102.128906 951.214844 98.714844 C 954.015625 95.296875 956.902344 91.953125 959.871094 88.679688 C 962.835938 85.40625 965.882812 82.207031 969.007812 79.082031 C 972.132812 75.957031 975.332031 72.910156 978.605469 69.941406 C 981.878906 66.976562 985.226562 64.089844 988.640625 61.289062 C 992.058594 58.484375 995.539062 55.765625 999.089844 53.132812 C 1002.636719 50.5 1006.25 47.957031 1009.921875 45.503906 C 1013.597656 43.046875 1017.328125 40.683594 1021.121094 38.414062 C 1024.910156 36.140625 1028.753906 33.964844 1032.648438 31.882812 C 1036.546875 29.796875 1040.492188 27.8125 1044.488281 25.921875 C 1048.480469 24.035156 1052.519531 22.242188 1056.601562 20.550781 C 1060.683594 18.863281 1064.804688 17.273438 1068.96875 15.78125 C 1073.128906 14.292969 1077.320312 12.910156 1081.550781 11.625 C 1085.777344 10.34375 1090.035156 9.164062 1094.324219 8.089844 C 1098.609375 7.019531 1102.917969 6.050781 1107.253906 5.1875 C 1111.585938 4.324219 1115.9375 3.570312 1120.308594 2.921875 C 1124.679688 2.273438 1129.066406 1.734375 1133.460938 1.300781 C 1137.859375 0.867188 1142.265625 0.542969 1146.679688 0.324219 C 1151.09375 0.109375 1155.507812 0 1159.925781 0 C 1164.347656 0 1168.761719 0.109375 1173.175781 0.324219 C 1177.589844 0.542969 1181.996094 0.867188 1186.390625 1.300781 C 1190.789062 1.734375 1195.171875 2.273438 1199.542969 2.921875 C 1203.914062 3.570312 1208.269531 4.324219 1212.601562 5.1875 C 1216.933594 6.050781 1221.246094 7.019531 1225.53125 8.089844 C 1229.816406 9.164062 1234.074219 10.34375 1238.304688 11.625 C 1242.53125 12.910156 1246.726562 14.292969 1250.886719 15.78125 C 1255.046875 17.273438 1259.167969 18.863281 1263.25 20.550781 C 1267.335938 22.242188 1271.371094 24.035156 1275.367188 25.921875 C 1279.363281 27.8125 1283.308594 29.796875 1287.203125 31.882812 C 1291.101562 33.964844 1294.945312 36.140625 1298.734375 38.414062 C 1302.523438 40.683594 1306.257812 43.046875 1309.929688 45.503906 C 1313.605469 47.957031 1317.214844 50.5 1320.765625 53.132812 C 1324.316406 55.765625 1327.796875 58.484375 1331.214844 61.289062 C 1334.628906 64.089844 1337.972656 66.976562 1341.246094 69.941406 C 1344.523438 72.910156 1347.722656 75.957031 1350.847656 79.082031 C 1353.96875 82.207031 1357.015625 85.40625 1359.984375 88.679688 C 1362.953125 91.953125 1365.835938 95.296875 1368.640625 98.714844 C 1371.441406 102.128906 1374.160156 105.613281 1376.792969 109.160156 C 1379.425781 112.710938 1381.96875 116.320312 1384.425781 119.996094 C 1386.878906 123.671875 1389.242188 127.402344 1391.515625 131.191406 C 1393.785156 134.980469 1395.960938 138.824219 1398.046875 142.722656 C 1400.128906 146.621094 1402.113281 150.566406 1404.003906 154.558594 C 1405.894531 158.554688 1407.683594 162.59375 1409.375 166.675781 C 1411.066406 170.757812 1412.65625 174.878906 1414.144531 179.039062 C 1415.632812 183.199219 1417.019531 187.394531 1418.300781 191.625 C 1419.582031 195.851562 1420.761719 200.109375 1421.835938 204.394531 C 1422.910156 208.683594 1423.878906 212.992188 1424.738281 217.324219 C 1425.601562 221.660156 1426.355469 226.011719 1427.003906 230.382812 C 1427.652344 234.753906 1428.195312 239.136719 1428.628906 243.535156 C 1429.058594 247.933594 1429.386719 252.339844 1429.601562 256.75 C 1429.820312 261.164062 1429.925781 265.582031 1429.925781 270 Z M 1429.925781 270 " fill-opacity="1" fill-rule="nonzero"/></g><path fill="#fbf1ef" d="M 1185.308594 321.121094 C 1185.308594 321.480469 1185.308594 321.660156 1185.308594 322.019531 L 1379.347656 322.019531 C 1379.347656 321.660156 1379.347656 321.480469 1379.347656 321.121094 C 1379.347656 305.28125 1366.386719 292.320312 1350.546875 292.320312 C 1347.128906 292.320312 1343.886719 292.859375 1340.828125 293.941406 C 1341.90625 290.339844 1342.445312 286.558594 1342.445312 282.601562 C 1342.445312 260.820312 1324.808594 243.359375 1303.207031 243.359375 C 1288.988281 243.359375 1276.386719 250.921875 1269.546875 262.441406 C 1267.386719 261.898438 1265.046875 261.71875 1262.707031 261.71875 C 1245.789062 261.71875 1231.925781 275.398438 1231.925781 292.5 C 1231.925781 294.839844 1232.105469 297.179688 1232.648438 299.339844 C 1227.605469 295.019531 1221.128906 292.5 1214.105469 292.5 C 1198.265625 292.320312 1185.308594 305.28125 1185.308594 321.121094 Z M 1185.308594 321.121094 " fill-opacity="1" fill-rule="nonzero"/><g mask="url(#e32555aabf)"><g transform="matrix(1, 0, 0, 1, 1185, 242)"><g clip-path="url(#68480ac9cd)"><g clip-path="url(#99a115565a)"><path fill="#fbf1ef" d="M 0.308594 79.121094 C 0.308594 79.480469 0.308594 79.660156 0.308594 80.019531 L 194.347656 80.019531 C 194.347656 79.660156 194.347656 79.480469 194.347656 79.121094 C 194.347656 63.28125 181.386719 50.320312 165.546875 50.320312 C 162.128906 50.320312 158.886719 50.859375 155.828125 51.941406 C 156.90625 48.339844 157.445312 44.558594 157.445312 40.601562 C 157.445312 18.820312 139.808594 1.359375 118.207031 1.359375 C 103.988281 1.359375 91.386719 8.921875 84.546875 20.441406 C 82.386719 19.898438 80.046875 19.71875 77.707031 19.71875 C 60.789062 19.71875 46.925781 33.398438 46.925781 50.5 C 46.925781 52.839844 47.105469 55.179688 47.648438 57.339844 C 42.605469 53.019531 36.128906 50.5 29.105469 50.5 C 13.265625 50.320312 0.308594 63.28125 0.308594 79.121094 Z M 0.308594 79.121094 " fill-opacity="1" fill-rule="nonzero"/></g></g></g></g><path fill="#fbf1ef" d="M 1036.628906 204.121094 C 1036.628906 204.300781 1036.628906 204.660156 1036.628906 204.839844 L 1194.128906 204.839844 C 1194.128906 204.660156 1194.128906 204.300781 1194.128906 204.121094 C 1194.128906 191.160156 1183.6875 180.71875 1170.726562 180.71875 C 1168.027344 180.71875 1165.328125 181.261719 1162.988281 182.160156 C 1163.886719 179.28125 1164.425781 176.21875 1164.425781 172.980469 C 1164.425781 155.339844 1150.207031 141.121094 1132.566406 141.121094 C 1121.046875 141.121094 1110.789062 147.238281 1105.207031 156.601562 C 1103.40625 156.238281 1101.605469 155.878906 1099.628906 155.878906 C 1085.765625 155.878906 1074.605469 167.039062 1074.605469 180.898438 C 1074.605469 182.878906 1074.789062 184.679688 1075.328125 186.480469 C 1071.1875 183.058594 1065.96875 180.898438 1060.207031 180.898438 C 1047.066406 180.71875 1036.628906 191.160156 1036.628906 204.121094 Z M 1036.628906 204.121094 " fill-opacity="1" fill-rule="nonzero"/><g mask="url(#263b504af0)"><g transform="matrix(1, 0, 0, 1, 1035, 140)"><g clip-path="url(#c0dc05bef0)"><g clip-path="url(#1f00203498)"><path fill="#fbf1ef" d="M 1.628906 64.121094 C 1.628906 64.300781 1.628906 64.660156 1.628906 64.839844 L 159.128906 64.839844 C 159.128906 64.660156 159.128906 64.300781 159.128906 64.121094 C 159.128906 51.160156 148.6875 40.71875 135.726562 40.71875 C 133.027344 40.71875 130.328125 41.261719 127.988281 42.160156 C 128.886719 39.28125 129.425781 36.21875 129.425781 32.980469 C 129.425781 15.339844 115.207031 1.121094 97.566406 1.121094 C 86.046875 1.121094 75.789062 7.238281 70.207031 16.601562 C 68.40625 16.238281 66.605469 15.878906 64.628906 15.878906 C 50.765625 15.878906 39.605469 27.039062 39.605469 40.898438 C 39.605469 42.878906 39.789062 44.679688 40.328125 46.480469 C 36.1875 43.058594 30.96875 40.898438 25.207031 40.898438 C 12.066406 40.71875 1.628906 51.160156 1.628906 64.121094 Z M 1.628906 64.121094 " fill-opacity="1" fill-rule="nonzero"/></g></g></g></g><path fill="#f8d842" d="M 1320.488281 267.660156 C 1320.488281 356.578125 1248.308594 428.761719 1159.386719 428.761719 C 1070.46875 428.761719 998.289062 356.578125 998.289062 267.660156 C 998.289062 178.738281 1070.46875 106.558594 1159.386719 106.558594 L 1159.925781 106.558594 C 1125.1875 124.738281 1101.605469 161.28125 1101.605469 203.039062 C 1101.605469 263.339844 1150.386719 312.121094 1210.6875 312.121094 C 1261.265625 312.121094 1303.925781 277.558594 1316.167969 230.761719 C 1319.046875 242.640625 1320.488281 255.058594 1320.488281 267.660156 Z M 1320.488281 267.660156 " fill-opacity="1" fill-rule="nonzero"/><path fill="#fbf1ef" d="M 1257.667969 154.261719 L 1263.605469 165.058594 C 1263.789062 165.238281 1263.96875 165.421875 1264.148438 165.601562 L 1274.945312 171.539062 C 1275.847656 172.078125 1275.847656 173.519531 1274.945312 174.058594 L 1264.148438 180 C 1263.96875 180.179688 1263.789062 180.359375 1263.605469 180.539062 L 1257.667969 191.339844 C 1257.128906 192.238281 1255.6875 192.238281 1255.148438 191.339844 L 1249.207031 180.539062 C 1249.027344 180.359375 1248.847656 180.179688 1248.667969 180 L 1237.867188 174.058594 C 1236.96875 173.519531 1236.96875 172.078125 1237.867188 171.539062 L 1248.667969 165.601562 C 1248.847656 165.421875 1249.027344 165.238281 1249.207031 165.058594 L 1255.148438 154.261719 C 1255.6875 153.359375 1257.128906 153.359375 1257.667969 154.261719 Z M 1257.667969 154.261719 " fill-opacity="1" fill-rule="nonzero"/><path fill="#fbf1ef" d="M 1071.007812 68.941406 L 1075.6875 77.578125 C 1075.867188 77.761719 1075.867188 77.941406 1076.046875 77.941406 L 1084.6875 82.621094 C 1085.40625 82.980469 1085.40625 84.058594 1084.6875 84.601562 L 1076.046875 89.28125 C 1075.867188 89.460938 1075.6875 89.460938 1075.6875 89.640625 L 1071.007812 98.28125 C 1070.648438 99 1069.566406 99 1069.027344 98.28125 L 1064.347656 89.640625 C 1064.167969 89.460938 1064.167969 89.28125 1063.988281 89.28125 L 1055.167969 84.601562 C 1054.445312 84.238281 1054.445312 83.160156 1055.167969 82.621094 L 1063.808594 77.941406 C 1063.988281 77.761719 1064.167969 77.761719 1064.167969 77.578125 L 1068.847656 68.941406 C 1069.386719 68.21875 1070.46875 68.21875 1071.007812 68.941406 Z M 1071.007812 68.941406 " fill-opacity="1" fill-rule="nonzero"/><path fill="#fbf1ef" d="M 1193.046875 450.71875 L 1195.925781 456.121094 C 1195.925781 456.300781 1196.105469 456.300781 1196.289062 456.480469 L 1201.6875 459.359375 C 1202.226562 459.539062 1202.226562 460.261719 1201.6875 460.621094 L 1196.289062 463.5 C 1196.105469 463.5 1196.105469 463.679688 1195.925781 463.859375 L 1193.046875 469.261719 C 1192.867188 469.800781 1192.148438 469.800781 1191.789062 469.261719 L 1188.90625 463.859375 C 1188.90625 463.679688 1188.726562 463.679688 1188.546875 463.5 L 1183.148438 460.621094 C 1182.605469 460.441406 1182.605469 459.71875 1183.148438 459.359375 L 1188.546875 456.480469 C 1188.726562 456.480469 1188.726562 456.300781 1188.90625 456.121094 L 1191.789062 450.71875 C 1192.148438 450.179688 1192.867188 450.179688 1193.046875 450.71875 Z M 1193.046875 450.71875 " fill-opacity="1" fill-rule="nonzero"/><path fill="#fbf1ef" d="M 977.765625 199.441406 L 981.367188 206.101562 C 981.367188 206.28125 981.546875 206.28125 981.726562 206.460938 L 988.386719 210.058594 C 988.925781 210.421875 988.925781 211.320312 988.386719 211.5 L 981.726562 215.101562 C 981.546875 215.101562 981.546875 215.28125 981.367188 215.460938 L 977.765625 222.121094 C 977.40625 222.660156 976.507812 222.660156 976.328125 222.121094 L 972.726562 215.460938 C 972.726562 215.28125 972.546875 215.28125 972.367188 215.101562 L 965.707031 211.5 C 965.167969 211.140625 965.167969 210.238281 965.707031 210.058594 L 972.367188 206.460938 C 972.546875 206.460938 972.546875 206.28125 972.726562 206.101562 L 976.328125 199.441406 C 976.6875 198.898438 977.585938 198.898438 977.765625 199.441406 Z M 977.765625 199.441406 " fill-opacity="1" fill-rule="nonzero"/><path fill="#fbf1ef" d="M 944.46875 286.378906 L 951.488281 299.160156 C 951.667969 299.519531 951.847656 299.699219 952.207031 299.878906 L 964.988281 306.898438 C 966.066406 307.441406 966.066406 309.058594 964.988281 309.78125 L 952.207031 316.800781 C 951.847656 316.980469 951.667969 317.160156 951.488281 317.519531 L 944.46875 330.300781 C 943.925781 331.378906 942.308594 331.378906 941.585938 330.300781 L 934.566406 317.519531 C 934.386719 317.160156 934.207031 316.980469 933.847656 316.800781 L 921.066406 309.78125 C 919.988281 309.238281 919.988281 307.621094 921.066406 306.898438 L 933.847656 299.878906 C 934.207031 299.699219 934.386719 299.519531 934.566406 299.160156 L 941.585938 286.378906 C 942.128906 285.300781 943.746094 285.300781 944.46875 286.378906 Z M 944.46875 286.378906 " fill-opacity="1" fill-rule="nonzero"/><path fill="#fbf1ef" d="M 1341.726562 354.960938 L 1346.765625 364.140625 C 1346.945312 364.320312 1347.128906 364.5 1347.308594 364.679688 L 1356.488281 369.71875 C 1357.386719 370.261719 1357.386719 371.339844 1356.488281 371.878906 L 1347.308594 376.921875 C 1347.128906 377.101562 1346.945312 377.28125 1346.765625 377.460938 L 1341.726562 386.640625 C 1341.1875 387.539062 1340.105469 387.539062 1339.566406 386.640625 L 1334.527344 377.460938 C 1334.347656 377.28125 1334.167969 377.101562 1333.988281 376.921875 L 1324.808594 371.878906 C 1323.90625 371.339844 1323.90625 370.261719 1324.808594 369.71875 L 1333.988281 364.679688 C 1334.167969 364.5 1334.347656 364.320312 1334.527344 364.140625 L 1339.566406 354.960938 C 1340.105469 354.058594 1341.367188 354.058594 1341.726562 354.960938 Z M 1341.726562 354.960938 " fill-opacity="1" fill-rule="nonzero"/><path fill="#fbf1ef" d="M 1037.167969 405.359375 L 1039.867188 410.398438 C 1039.867188 410.578125 1040.046875 410.578125 1040.046875 410.578125 L 1045.085938 413.28125 C 1045.445312 413.460938 1045.445312 414.179688 1045.085938 414.359375 L 1040.046875 417.058594 C 1039.867188 417.058594 1039.867188 417.238281 1039.867188 417.238281 L 1037.167969 422.28125 C 1036.988281 422.640625 1036.265625 422.640625 1036.085938 422.28125 L 1033.386719 417.238281 C 1033.386719 417.058594 1033.207031 417.058594 1033.207031 417.058594 L 1028.167969 414.359375 C 1027.808594 414.179688 1027.808594 413.460938 1028.167969 413.28125 L 1033.207031 410.578125 C 1033.386719 410.578125 1033.386719 410.398438 1033.386719 410.398438 L 1036.085938 405.359375 C 1036.265625 405 1036.988281 405 1037.167969 405.359375 Z M 1037.167969 405.359375 " fill-opacity="1" fill-rule="nonzero"/><path fill="#fbf1ef" d="M 1363.148438 150.121094 L 1366.746094 156.601562 C 1366.746094 156.78125 1366.925781 156.78125 1367.105469 156.960938 L 1373.585938 160.558594 C 1374.128906 160.921875 1374.128906 161.640625 1373.585938 162 L 1367.105469 165.601562 C 1366.925781 165.601562 1366.925781 165.78125 1366.746094 165.960938 L 1363.148438 172.441406 C 1362.789062 172.980469 1362.066406 172.980469 1361.707031 172.441406 L 1358.105469 165.960938 C 1358.105469 165.78125 1357.925781 165.78125 1357.746094 165.601562 L 1351.265625 162 C 1350.726562 161.640625 1350.726562 160.921875 1351.265625 160.558594 L 1357.746094 156.960938 C 1357.925781 156.960938 1357.925781 156.78125 1358.105469 156.601562 L 1361.707031 150.121094 C 1362.066406 149.578125 1362.789062 149.578125 1363.148438 150.121094 Z M 1363.148438 150.121094 " fill-opacity="1" fill-rule="nonzero"/><path fill="#fbf1ef" d="M 1188.1875 257.398438 L 1190.167969 261 C 1190.167969 261 1190.347656 261.179688 1190.347656 261.179688 L 1193.945312 263.160156 C 1194.308594 263.339844 1194.308594 263.878906 1193.945312 264.058594 L 1190.347656 266.039062 C 1190.347656 266.039062 1190.167969 266.21875 1190.167969 266.21875 L 1188.1875 269.820312 C 1188.007812 270.179688 1187.46875 270.179688 1187.289062 269.820312 L 1185.308594 266.21875 C 1185.308594 266.21875 1185.128906 266.039062 1185.128906 266.039062 L 1181.527344 264.058594 C 1181.167969 263.878906 1181.167969 263.339844 1181.527344 263.160156 L 1185.128906 261.179688 C 1185.128906 261.179688 1185.308594 261 1185.308594 261 L 1187.289062 257.398438 C 1187.46875 257.039062 1188.007812 257.039062 1188.1875 257.398438 Z M 1188.1875 257.398438 " fill-opacity="1" fill-rule="nonzero"/><path fill="#fbf1ef" d="M 1215.367188 67.859375 L 1217.347656 71.460938 C 1217.347656 71.460938 1217.527344 71.640625 1217.527344 71.640625 L 1221.128906 73.621094 C 1221.488281 73.800781 1221.488281 74.339844 1221.128906 74.519531 L 1217.527344 76.5 C 1217.527344 76.5 1217.347656 76.679688 1217.347656 76.679688 L 1215.367188 80.28125 C 1215.1875 80.640625 1214.648438 80.640625 1214.46875 80.28125 L 1212.488281 76.679688 C 1212.488281 76.679688 1212.308594 76.5 1212.308594 76.5 L 1208.707031 74.519531 C 1208.347656 74.339844 1208.347656 73.800781 1208.707031 73.621094 L 1212.308594 71.640625 C 1212.308594 71.640625 1212.488281 71.460938 1212.488281 71.460938 L 1214.46875 67.859375 C 1214.828125 67.5 1215.1875 67.5 1215.367188 67.859375 Z M 1215.367188 67.859375 " fill-opacity="1" fill-rule="nonzero"/><path fill="#fbf1ef" d="M 1221.847656 381.960938 C 1221.847656 382.320312 1221.847656 382.679688 1221.847656 383.039062 L 959.226562 383.039062 C 959.226562 382.679688 959.226562 382.320312 959.226562 381.960938 C 959.226562 360.539062 976.6875 343.078125 998.289062 343.078125 C 1002.789062 343.078125 1007.289062 343.800781 1011.246094 345.421875 C 1009.808594 340.558594 1008.90625 335.339844 1008.90625 330.121094 C 1008.90625 300.78125 1032.667969 276.839844 1062.1875 276.839844 C 1081.445312 276.839844 1098.367188 287.101562 1107.726562 302.578125 C 1110.789062 301.859375 1113.847656 301.5 1117.085938 301.5 C 1124.46875 301.5 1131.308594 303.300781 1137.246094 306.71875 C 1150.027344 313.738281 1158.847656 327.421875 1158.847656 343.078125 C 1158.847656 346.320312 1158.488281 349.378906 1157.765625 352.261719 C 1164.605469 346.5 1173.246094 343.078125 1182.96875 343.078125 C 1204.386719 342.898438 1221.847656 360.359375 1221.847656 381.960938 Z M 1221.847656 381.960938 " fill-opacity="1" fill-rule="nonzero"/><g mask="url(#5ee4877f5f)"><g transform="matrix(1, 0, 0, 1, 958, 275)"><g clip-path="url(#8961b4697f)"><g clip-path="url(#4989ac7946)"><path fill="#fbf1ef" d="M 149.726562 27.21875 C 133.707031 31 121.46875 44.320312 118.945312 60.699219 C 114.085938 58.71875 108.867188 57.640625 103.46875 57.640625 C 80.605469 57.640625 62.066406 76.179688 62.066406 99.039062 C 62.066406 102.101562 62.425781 105.160156 62.96875 108.039062 L 1.226562 108.039062 C 1.226562 107.679688 1.226562 107.320312 1.226562 106.960938 C 1.226562 85.539062 18.6875 68.078125 40.289062 68.078125 C 44.789062 68.078125 49.289062 68.800781 53.246094 70.421875 C 51.808594 65.558594 50.90625 60.339844 50.90625 55.121094 C 50.90625 25.78125 74.667969 1.839844 104.1875 1.839844 C 123.628906 1.660156 140.367188 11.921875 149.726562 27.21875 Z M 149.726562 27.21875 " fill-opacity="1" fill-rule="nonzero"/></g></g></g></g><g mask="url(#91083f5439)"><g transform="matrix(1, 0, 0, 1, 1244, 329)"><g clip-path="url(#23eb3e2014)"><g clip-path="url(#1ad5185e56)"><path fill="#fbf1ef" d="M 30.585938 15.878906 C 30.585938 16.859375 30.492188 17.832031 30.300781 18.792969 C 30.109375 19.757812 29.824219 20.691406 29.449219 21.597656 C 29.074219 22.503906 28.613281 23.363281 28.070312 24.179688 C 27.523438 24.996094 26.90625 25.75 26.210938 26.445312 C 25.519531 27.136719 24.761719 27.757812 23.949219 28.300781 C 23.132812 28.847656 22.269531 29.308594 21.363281 29.683594 C 20.457031 30.058594 19.523438 30.339844 18.5625 30.53125 C 17.601562 30.722656 16.628906 30.820312 15.648438 30.820312 C 14.667969 30.820312 13.695312 30.722656 12.734375 30.53125 C 11.769531 30.339844 10.835938 30.058594 9.929688 29.683594 C 9.023438 29.308594 8.164062 28.847656 7.347656 28.300781 C 6.53125 27.757812 5.777344 27.136719 5.082031 26.445312 C 4.390625 25.75 3.769531 24.996094 3.226562 24.179688 C 2.679688 23.363281 2.21875 22.503906 1.84375 21.597656 C 1.46875 20.691406 1.183594 19.757812 0.996094 18.792969 C 0.804688 17.832031 0.707031 16.859375 0.707031 15.878906 C 0.707031 14.898438 0.804688 13.925781 0.996094 12.964844 C 1.183594 12.003906 1.46875 11.070312 1.84375 10.164062 C 2.21875 9.257812 2.679688 8.394531 3.226562 7.578125 C 3.769531 6.765625 4.390625 6.007812 5.082031 5.316406 C 5.777344 4.621094 6.53125 4.003906 7.347656 3.457031 C 8.164062 2.914062 9.023438 2.453125 9.929688 2.078125 C 10.835938 1.703125 11.769531 1.417969 12.734375 1.226562 C 13.695312 1.035156 14.667969 0.941406 15.648438 0.941406 C 16.628906 0.941406 17.601562 1.035156 18.5625 1.226562 C 19.523438 1.417969 20.457031 1.703125 21.363281 2.078125 C 22.269531 2.453125 23.132812 2.914062 23.949219 3.457031 C 24.761719 4.003906 25.519531 4.621094 26.210938 5.316406 C 26.90625 6.007812 27.523438 6.765625 28.070312 7.578125 C 28.613281 8.394531 29.074219 9.257812 29.449219 10.164062 C 29.824219 11.070312 30.109375 12.003906 30.300781 12.964844 C 30.492188 13.925781 30.585938 14.898438 30.585938 15.878906 Z M 30.585938 15.878906 " fill-opacity="1" fill-rule="nonzero"/></g></g></g></g><g mask="url(#25a983d5d6)"><g transform="matrix(1, 0, 0, 1, 1267, 316)"><g clip-path="url(#5d7bb05bca)"><g clip-path="url(#86305a3ee6)"><path fill="#fbf1ef" d="M 13.347656 8.179688 C 13.347656 8.558594 13.308594 8.933594 13.238281 9.304688 C 13.164062 9.675781 13.054688 10.035156 12.910156 10.382812 C 12.765625 10.734375 12.585938 11.066406 12.375 11.378906 C 12.167969 11.695312 11.925781 11.984375 11.660156 12.253906 C 11.394531 12.519531 11.101562 12.757812 10.789062 12.96875 C 10.472656 13.179688 10.140625 13.355469 9.792969 13.5 C 9.441406 13.644531 9.082031 13.753906 8.710938 13.828125 C 8.339844 13.902344 7.964844 13.941406 7.585938 13.941406 C 7.207031 13.941406 6.835938 13.902344 6.464844 13.828125 C 6.09375 13.753906 5.730469 13.644531 5.382812 13.5 C 5.035156 13.355469 4.703125 13.179688 4.386719 12.96875 C 4.074219 12.757812 3.78125 12.519531 3.515625 12.253906 C 3.246094 11.984375 3.007812 11.695312 2.796875 11.378906 C 2.585938 11.066406 2.410156 10.734375 2.265625 10.382812 C 2.121094 10.035156 2.011719 9.675781 1.9375 9.304688 C 1.863281 8.933594 1.828125 8.558594 1.828125 8.179688 C 1.828125 7.800781 1.863281 7.425781 1.9375 7.054688 C 2.011719 6.683594 2.121094 6.324219 2.265625 5.976562 C 2.410156 5.625 2.585938 5.292969 2.796875 4.980469 C 3.007812 4.664062 3.246094 4.375 3.515625 4.105469 C 3.78125 3.839844 4.074219 3.601562 4.386719 3.390625 C 4.703125 3.179688 5.035156 3.003906 5.382812 2.859375 C 5.730469 2.714844 6.09375 2.605469 6.464844 2.53125 C 6.835938 2.457031 7.207031 2.421875 7.585938 2.421875 C 7.964844 2.421875 8.339844 2.457031 8.710938 2.53125 C 9.082031 2.605469 9.441406 2.714844 9.792969 2.859375 C 10.140625 3.003906 10.472656 3.179688 10.789062 3.390625 C 11.101562 3.601562 11.394531 3.839844 11.660156 4.105469 C 11.925781 4.375 12.167969 4.664062 12.375 4.980469 C 12.585938 5.292969 12.765625 5.625 12.910156 5.976562 C 13.054688 6.324219 13.164062 6.683594 13.238281 7.054688 C 13.308594 7.425781 13.347656 7.800781 13.347656 8.179688 Z M 13.347656 8.179688 " fill-opacity="1" fill-rule="nonzero"/></g></g></g></g><g mask="url(#884b9394be)"><g transform="matrix(1, 0, 0, 1, 1069, 154)"><g clip-path="url(#954750e1a2)"><g clip-path="url(#3a71f75ffa)"><path fill="#fbf1ef" d="M 12.445312 7.28125 C 12.445312 7.660156 12.410156 8.03125 12.335938 8.402344 C 12.261719 8.773438 12.152344 9.136719 12.007812 9.484375 C 11.863281 9.832031 11.6875 10.164062 11.476562 10.480469 C 11.265625 10.792969 11.027344 11.085938 10.761719 11.351562 C 10.492188 11.621094 10.203125 11.859375 9.886719 12.070312 C 9.574219 12.28125 9.242188 12.457031 8.890625 12.601562 C 8.542969 12.746094 8.183594 12.855469 7.8125 12.929688 C 7.441406 13.003906 7.066406 13.039062 6.6875 13.039062 C 6.308594 13.039062 5.933594 13.003906 5.5625 12.929688 C 5.191406 12.855469 4.832031 12.746094 4.484375 12.601562 C 4.132812 12.457031 3.800781 12.28125 3.488281 12.070312 C 3.171875 11.859375 2.882812 11.621094 2.613281 11.351562 C 2.347656 11.085938 2.109375 10.792969 1.898438 10.480469 C 1.6875 10.164062 1.511719 9.832031 1.367188 9.484375 C 1.222656 9.136719 1.113281 8.773438 1.039062 8.402344 C 0.964844 8.03125 0.925781 7.660156 0.925781 7.28125 C 0.925781 6.902344 0.964844 6.527344 1.039062 6.15625 C 1.113281 5.785156 1.222656 5.425781 1.367188 5.074219 C 1.511719 4.726562 1.6875 4.394531 1.898438 4.078125 C 2.109375 3.765625 2.347656 3.472656 2.613281 3.207031 C 2.882812 2.941406 3.171875 2.699219 3.488281 2.492188 C 3.800781 2.28125 4.132812 2.101562 4.484375 1.957031 C 4.832031 1.8125 5.191406 1.703125 5.5625 1.628906 C 5.933594 1.558594 6.308594 1.519531 6.6875 1.519531 C 7.066406 1.519531 7.441406 1.558594 7.8125 1.628906 C 8.183594 1.703125 8.542969 1.8125 8.890625 1.957031 C 9.242188 2.101562 9.574219 2.28125 9.886719 2.492188 C 10.203125 2.699219 10.492188 2.941406 10.761719 3.207031 C 11.027344 3.472656 11.265625 3.765625 11.476562 4.078125 C 11.6875 4.394531 11.863281 4.726562 12.007812 5.074219 C 12.152344 5.425781 12.261719 5.785156 12.335938 6.15625 C 12.410156 6.527344 12.445312 6.902344 12.445312 7.28125 Z M 12.445312 7.28125 " fill-opacity="1" fill-rule="nonzero"/></g></g></g></g><g mask="url(#dfa7303408)"><g transform="matrix(1, 0, 0, 1, 1206, 66)"><g clip-path="url(#c7bbcabcf5)"><path fill="#fbf1ef" d="M 9.367188 1.859375 L 11.347656 5.460938 C 11.347656 5.460938 11.527344 5.640625 11.527344 5.640625 L 15.128906 7.621094 C 15.488281 7.800781 15.488281 8.339844 15.128906 8.519531 L 11.527344 10.5 C 11.527344 10.5 11.347656 10.679688 11.347656 10.679688 L 9.367188 14.28125 C 9.1875 14.640625 8.648438 14.640625 8.46875 14.28125 L 6.488281 10.679688 C 6.488281 10.679688 6.308594 10.5 6.308594 10.5 L 2.707031 8.519531 C 2.347656 8.339844 2.347656 7.800781 2.707031 7.621094 L 6.308594 5.640625 C 6.308594 5.640625 6.488281 5.460938 6.488281 5.460938 L 8.46875 1.859375 C 8.828125 1.5 9.1875 1.5 9.367188 1.859375 Z M 9.367188 1.859375 " fill-opacity="1" fill-rule="nonzero"/></g></g></g><g mask="url(#e3ecbface9)"><g transform="matrix(1, 0, 0, 1, 1179, 255)"><g clip-path="url(#3277e94b0c)"><path fill="#fbf1ef" d="M 9.1875 2.398438 L 11.167969 6 C 11.167969 6 11.347656 6.179688 11.347656 6.179688 L 14.945312 8.160156 C 15.308594 8.339844 15.308594 8.878906 14.945312 9.058594 L 11.347656 11.039062 C 11.347656 11.039062 11.167969 11.21875 11.167969 11.21875 L 9.1875 14.820312 C 9.007812 15.179688 8.46875 15.179688 8.289062 14.820312 L 6.308594 11.21875 C 6.308594 11.21875 6.128906 11.039062 6.128906 11.039062 L 2.527344 9.058594 C 2.167969 8.878906 2.167969 8.339844 2.527344 8.160156 L 6.128906 6.179688 C 6.128906 6.179688 6.308594 6 6.308594 6 L 8.289062 2.398438 C 8.46875 2.039062 9.007812 2.039062 9.1875 2.398438 Z M 9.1875 2.398438 " fill-opacity="1" fill-rule="nonzero"/></g></g></g><g mask="url(#f834b1f0d6)"><g transform="matrix(1, 0, 0, 1, 1026, 404)"><g clip-path="url(#aa9456268b)"><path fill="#fbf1ef" d="M 11.167969 1.359375 L 13.867188 6.398438 C 13.867188 6.578125 14.046875 6.578125 14.046875 6.578125 L 19.085938 9.28125 C 19.445312 9.460938 19.445312 10.179688 19.085938 10.359375 L 14.046875 13.058594 C 13.867188 13.058594 13.867188 13.238281 13.867188 13.238281 L 11.167969 18.28125 C 10.988281 18.640625 10.265625 18.640625 10.085938 18.28125 L 7.386719 13.238281 C 7.386719 13.058594 7.207031 13.058594 7.207031 13.058594 L 2.167969 10.359375 C 1.808594 10.179688 1.808594 9.460938 2.167969 9.28125 L 7.207031 6.578125 C 7.386719 6.578125 7.386719 6.398438 7.386719 6.398438 L 10.085938 1.359375 C 10.265625 1 10.988281 1 11.167969 1.359375 Z M 11.167969 1.359375 " fill-opacity="1" fill-rule="nonzero"/></g></g></g><g mask="url(#a0e352a5e3)"><g transform="matrix(1, 0, 0, 1, 1323, 352)"><g clip-path="url(#8033eae660)"><path fill="#fbf1ef" d="M 18.726562 2.960938 L 23.765625 12.140625 C 23.945312 12.320312 24.128906 12.5 24.308594 12.679688 L 33.488281 17.71875 C 34.386719 18.261719 34.386719 19.339844 33.488281 19.878906 L 24.308594 24.921875 C 24.128906 25.101562 23.945312 25.28125 23.765625 25.460938 L 18.726562 34.640625 C 18.1875 35.539062 17.105469 35.539062 16.566406 34.640625 L 11.527344 25.460938 C 11.347656 25.28125 11.167969 25.101562 10.988281 24.921875 L 1.808594 19.878906 C 0.90625 19.339844 0.90625 18.261719 1.808594 17.71875 L 10.988281 12.679688 C 11.167969 12.5 11.347656 12.320312 11.527344 12.140625 L 16.566406 2.960938 C 17.105469 2.058594 18.367188 2.058594 18.726562 2.960938 Z M 18.726562 2.960938 " fill-opacity="1" fill-rule="nonzero"/></g></g></g><g mask="url(#de8bee7ab8)"><g transform="matrix(1, 0, 0, 1, 963, 198)"><g clip-path="url(#cec880dd74)"><path fill="#fbf1ef" d="M 14.765625 1.441406 L 18.367188 8.101562 C 18.367188 8.28125 18.546875 8.28125 18.726562 8.460938 L 25.386719 12.058594 C 25.925781 12.421875 25.925781 13.320312 25.386719 13.5 L 18.726562 17.101562 C 18.546875 17.101562 18.546875 17.28125 18.367188 17.460938 L 14.765625 24.121094 C 14.40625 24.660156 13.507812 24.660156 13.328125 24.121094 L 9.726562 17.460938 C 9.726562 17.28125 9.546875 17.28125 9.367188 17.101562 L 2.707031 13.5 C 2.167969 13.140625 2.167969 12.238281 2.707031 12.058594 L 9.367188 8.460938 C 9.546875 8.460938 9.546875 8.28125 9.726562 8.101562 L 13.328125 1.441406 C 13.6875 0.898438 14.585938 0.898438 14.765625 1.441406 Z M 14.765625 1.441406 " fill-opacity="1" fill-rule="nonzero"/></g></g></g><g mask="url(#cb6a3fa1ef)"><g transform="matrix(1, 0, 0, 1, 1350, 149)"><g clip-path="url(#861e35cf7c)"><g clip-path="url(#6b7987f256)"><path fill="#fbf1ef" d="M 13.148438 1.121094 L 16.746094 7.601562 C 16.746094 7.78125 16.925781 7.78125 17.105469 7.960938 L 23.585938 11.558594 C 24.128906 11.921875 24.128906 12.640625 23.585938 13 L 17.105469 16.601562 C 16.925781 16.601562 16.925781 16.78125 16.746094 16.960938 L 13.148438 23.441406 C 12.789062 23.980469 12.066406 23.980469 11.707031 23.441406 L 8.105469 16.960938 C 8.105469 16.78125 7.925781 16.78125 7.746094 16.601562 L 1.265625 13 C 0.726562 12.640625 0.726562 11.921875 1.265625 11.558594 L 7.746094 7.960938 C 7.925781 7.960938 7.925781 7.78125 8.105469 7.601562 L 11.707031 1.121094 C 12.066406 0.578125 12.789062 0.578125 13.148438 1.121094 Z M 13.148438 1.121094 " fill-opacity="1" fill-rule="nonzero"/></g></g></g></g><g clip-path="url(#3dae0f0ade)"><path fill="#b175ff" d="M 1150.140625 902.664062 C 1150.140625 903.769531 1150.140625 905.152344 1150.140625 906.253906 L 321.480469 906.253906 C 321.480469 905.152344 321.480469 903.769531 321.480469 902.664062 C 321.480469 834.992188 376.449219 779.746094 444.398438 779.746094 C 458.761719 779.746094 472.574219 782.234375 485.554688 786.929688 C 480.859375 771.460938 478.375 755.164062 478.375 738.3125 C 478.375 645.78125 553.78125 570.648438 646.59375 570.648438 C 707.636719 570.648438 760.945312 603.242188 790.503906 651.859375 C 799.894531 649.648438 809.835938 648.542969 819.78125 648.542969 C 842.707031 648.542969 864.527344 654.34375 883.3125 664.839844 C 923.917969 687.214844 951.261719 730.304688 951.261719 779.746094 C 951.261719 789.691406 950.15625 799.636719 947.949219 809.027344 C 969.492188 790.796875 997.113281 779.746094 1027.5 779.746094 C 1095.171875 780.023438 1150.140625 834.992188 1150.140625 902.664062 Z M 1150.140625 902.664062 " fill-opacity="1" fill-rule="nonzero"/></g><g clip-path="url(#14b3659b66)"><g mask="url(#bb298c58e9)"><g transform="matrix(1, 0, 0, 1, 321, 570)"><g clip-path="url(#fe89c99a4c)"><g clip-path="url(#793d52bde2)"><path fill="#fbf1ef" d="M 468.949219 81.582031 C 418.679688 93.734375 379.730469 135.445312 371.71875 187.375 C 356.527344 181.296875 339.957031 177.707031 322.554688 177.707031 C 250.460938 177.707031 191.902344 235.988281 191.902344 308.359375 C 191.902344 318.023438 193.007812 327.417969 194.941406 336.53125 L 0.480469 336.53125 C 0.480469 335.425781 0.480469 334.046875 0.480469 332.941406 C 0.480469 265.265625 55.449219 210.023438 123.398438 210.023438 C 137.761719 210.023438 151.574219 212.507812 164.554688 217.203125 C 159.859375 201.738281 157.375 185.441406 157.375 168.589844 C 157.375 75.78125 232.78125 0.648438 325.59375 0.648438 C 386.359375 0.648438 439.671875 32.964844 468.949219 81.582031 Z M 468.949219 81.582031 " fill-opacity="1" fill-rule="nonzero"/></g></g></g></g></g><g clip-path="url(#3599719784)"><path fill="#fbf1ef" d="M 1623.257812 841.03125 C 1623.257812 841.988281 1623.257812 843.183594 1623.257812 844.140625 L 906.140625 844.140625 C 906.140625 843.183594 906.140625 841.988281 906.140625 841.03125 C 906.140625 782.46875 953.707031 734.660156 1012.511719 734.660156 C 1024.941406 734.660156 1036.894531 736.8125 1048.128906 740.875 C 1044.066406 727.488281 1041.914062 713.386719 1041.914062 698.804688 C 1041.914062 618.726562 1107.171875 553.707031 1187.488281 553.707031 C 1240.316406 553.707031 1286.449219 581.914062 1312.027344 623.984375 C 1320.15625 622.074219 1328.761719 621.117188 1337.367188 621.117188 C 1357.207031 621.117188 1376.089844 626.136719 1392.34375 635.21875 C 1427.484375 654.582031 1451.148438 691.871094 1451.148438 734.660156 C 1451.148438 743.265625 1450.191406 751.871094 1448.28125 760 C 1466.925781 744.222656 1490.828125 734.660156 1517.125 734.660156 C 1575.6875 734.898438 1623.257812 782.46875 1623.257812 841.03125 Z M 1623.257812 841.03125 " fill-opacity="1" fill-rule="nonzero"/></g><g clip-path="url(#6b46fba865)"><g mask="url(#7dcea6a987)"><g transform="matrix(1, 0, 0, 1, 906, 553)"><g clip-path="url(#9aed501814)"><g clip-path="url(#0613c67d88)"><path fill="#b175ff" d="M 405.550781 70.746094 C 362.042969 81.261719 328.339844 117.359375 321.40625 162.296875 C 308.261719 157.039062 293.917969 153.929688 278.859375 153.929688 C 216.46875 153.929688 165.792969 204.367188 165.792969 266.996094 C 165.792969 275.363281 166.75 283.492188 168.421875 291.378906 L 0.140625 291.378906 C 0.140625 290.421875 0.140625 289.226562 0.140625 288.273438 C 0.140625 229.707031 47.707031 181.898438 106.511719 181.898438 C 118.941406 181.898438 130.894531 184.050781 142.128906 188.113281 C 138.066406 174.726562 135.914062 160.625 135.914062 146.042969 C 135.914062 65.726562 201.171875 0.707031 281.488281 0.707031 C 334.078125 0.707031 380.210938 28.675781 405.550781 70.746094 Z M 405.550781 70.746094 " fill-opacity="1" fill-rule="nonzero"/></g></g></g></g></g></svg>